# xmcd
#
# Track frame offsets:
#	150
#	6027
#	27300
#	31574
#	50973
#	68745
#	93097
#	112806
#	139829
#	159907
#
# Disc length: 2405 seconds
#
# Revision: 1
# Processed by: cddbd v1.5.1PL0 Copyright (c) Steve Scherf et al.
# Submitted via: dBpowerAMP V4.0
#
DISCID=7009630a
DTITLE=Autumn Tears - Eclipse
DYEAR=2004
DGENRE=Dark Classical
TTITLE0=Commemoration
TTITLE1=Ophelias Crown
TTITLE2=Three
TTITLE3=Dawn
TTITLE4=Remember
TTITLE5=Flight
TTITLE6=The Beauty in all Things
TTITLE7=Pandora's Womb
TTITLE8=At a Distance
TTITLE9=Eclipse
EXTD=
EXTT0=
EXTT1=
EXTT2=
EXTT3=
EXTT4=
EXTT5=
EXTT6=
EXTT7=
EXTT8=
EXTT9=
PLAYORDER=
